# xmcd CD database generated by RipIT
#
# Track frame offsets:
# 150
# 25298
# 50409
# 76799
# 104825
# 124754
# 156516
# 182691
# 196382
# 226740
# 260665
# 300438
# 321055
#
# Disc length: 4581 seconds
#
# Revision: 0
# Processed by: cddbd v1.5.2PL0 Copyright (c) Steve Scherf et al.
# Submitted via: RipIT 3.6.0 www.suwald.com/ripit/ripit.html on 2009-01-08 at 13:50
#
DISCID=a911e30d
DTITLE=Gary Moore - Blues alive
DYEAR=1900
DGENRE=
TTITLE0=Cold Day in Hell
TTITLE1=Further on up the Road
TTITLE2=Jumpin' at Shadows
TTITLE3=King of the Blues
TTITLE4=Oh pretty Women
TTITLE5=Parisienne Walkways
TTITLE6=Separate Ways
TTITLE7=Since I met You Baby
TTITLE8=Still got the Blues
TTITLE9=Story of the Blues
TTITLE10=The Sky is crying
TTITLE11=Too tired
TTITLE12=Walking by myself
EXTD=
EXTT0=
EXTT1=
EXTT2=
EXTT3=
EXTT4=
EXTT5=
EXTT6=
EXTT7=
EXTT8=
EXTT9=
EXTT10=
EXTT11=
EXTT12=
PLAYORDER=
